<?xml version="1.0" encoding="UTF-8"?>
<!--Generator: Apple Native CoreSVG 341-->
<!DOCTYPE svg
PUBLIC "-//W3C//DTD SVG 1.1//EN"
       "http://www.w3.org/Graphics/SVG/1.1/DTD/svg11.dtd">
<svg version="1.1" xmlns="http://www.w3.org/2000/svg" xmlns:xlink="http://www.w3.org/1999/xlink" viewBox="0 0 69.3164 53.9355">
 <g>
  <rect height="53.9355" opacity="0" width="69.3164" x="0" y="0"/>
  <path d="M9.19922 53.9355L59.8828 53.9355C66.0352 53.9355 69.082 50.918 69.082 44.8828L69.082 9.08203C69.082 3.04688 66.0352 0 59.8828 0L9.19922 0C3.07617 0 0 3.04688 0 9.08203L0 44.8828C0 50.918 3.07617 53.9355 9.19922 53.9355ZM9.25781 49.2188C6.32812 49.2188 4.7168 47.666 4.7168 44.6191L4.7168 9.3457C4.7168 6.29883 6.32812 4.7168 9.25781 4.7168L59.8242 4.7168C62.7246 4.7168 64.3652 6.29883 64.3652 9.3457L64.3652 44.6191C64.3652 47.666 62.7246 49.2188 59.8242 49.2188Z" fill="black" fill-opacity="0.85"/>
  <path d="M13.8867 16.0254C15.4102 16.0254 16.6113 14.7949 16.6113 13.3008C16.6113 11.7773 15.4102 10.5762 13.8867 10.5762C12.4219 10.5762 11.1621 11.8066 11.1621 13.3008C11.1621 14.7656 12.4219 16.0254 13.8867 16.0254Z" fill="black" fill-opacity="0.85"/>
  <path d="M22.7344 15.0879L56.25 15.0879C57.3047 15.0879 58.0957 14.2969 58.0957 13.3008C58.0957 12.2754 57.2754 11.4551 56.25 11.4551L22.7344 11.4551C21.709 11.4551 20.8887 12.2754 20.8887 13.3008C20.8887 14.2969 21.6797 15.0879 22.7344 15.0879Z" fill="black" fill-opacity="0.85"/>
  <path d="M13.8867 24.9902C15.4102 24.9902 16.6113 23.7598 16.6113 22.2656C16.6113 20.7422 15.4102 19.541 13.8867 19.541C12.4219 19.541 11.1621 20.7715 11.1621 22.2656C11.1621 23.7305 12.4219 24.9902 13.8867 24.9902Z" fill="black" fill-opacity="0.85"/>
  <path d="M22.7344 24.082L41.3086 24.082C42.3047 24.082 43.125 23.2617 43.125 22.2656C43.125 21.2695 42.3047 20.4199 41.3086 20.4199L22.7344 20.4199C21.709 20.4199 20.8887 21.2695 20.8887 22.2656C20.8887 23.2617 21.709 24.082 22.7344 24.082Z" fill="black" fill-opacity="0.85"/>
  <path d="M13.8867 33.9258C15.4102 33.9258 16.6113 32.7246 16.6113 31.2012C16.6113 29.707 15.4102 28.5059 13.8867 28.5059C12.3926 28.5059 11.1621 29.7363 11.1621 31.2012C11.1621 32.7246 12.3926 33.9258 13.8867 33.9258Z" fill="black" fill-opacity="0.85"/>
  <path d="M22.7344 33.0469L56.25 33.0469C57.3047 33.0469 58.0957 32.2559 58.0957 31.2012C58.0957 30.2051 57.3047 29.4141 56.25 29.4141L22.7344 29.4141C21.6797 29.4141 20.8887 30.2051 20.8887 31.2012C20.8887 32.2559 21.6797 33.0469 22.7344 33.0469Z" fill="black" fill-opacity="0.85"/>
  <path d="M13.8867 43.3301C15.4102 43.3301 16.6113 42.0996 16.6113 40.6055C16.6113 39.082 15.4102 37.8516 13.8867 37.8516C12.4219 37.8516 11.1621 39.1113 11.1621 40.6055C11.1621 42.0703 12.4219 43.3301 13.8867 43.3301Z" fill="black" fill-opacity="0.85"/>
  <path d="M22.7344 42.4219L41.3086 42.4219C42.3047 42.4219 43.125 41.6016 43.125 40.6055C43.125 39.5801 42.334 38.7891 41.3086 38.7891L22.7344 38.7891C21.6797 38.7891 20.8887 39.5801 20.8887 40.6055C20.8887 41.6016 21.709 42.4219 22.7344 42.4219Z" fill="black" fill-opacity="0.85"/>
 </g>
</svg>
