<?xml version="1.0" encoding="UTF-8"?>
<!--Generator: Apple Native CoreSVG 341-->
<!DOCTYPE svg
PUBLIC "-//W3C//DTD SVG 1.1//EN"
       "http://www.w3.org/Graphics/SVG/1.1/DTD/svg11.dtd">
<svg version="1.1" xmlns="http://www.w3.org/2000/svg" xmlns:xlink="http://www.w3.org/1999/xlink" viewBox="0 0 69.3164 53.9355">
 <g>
  <rect height="53.9355" opacity="0" width="69.3164" x="0" y="0"/>
  <path d="M69.082 9.08203L69.082 44.8828C69.082 50.918 66.0352 53.9355 59.8828 53.9355L9.19922 53.9355C3.07617 53.9355 0 50.918 0 44.8828L0 9.08203C0 3.04688 3.07617 0 9.19922 0L59.8828 0C66.0352 0 69.082 3.04688 69.082 9.08203ZM10.459 41.0449C10.459 42.5684 11.748 43.8574 13.2422 43.8574C14.8242 43.8574 16.084 42.5977 16.084 41.0449C16.084 39.4922 14.8242 38.2031 13.2422 38.2031C11.748 38.2031 10.459 39.5215 10.459 41.0449ZM22.3535 39.1699C21.2695 39.1699 20.4492 39.9902 20.4492 41.0449C20.4492 42.0996 21.2988 42.9492 22.3535 42.9492L41.4844 42.9492C42.5098 42.9492 43.3594 42.0996 43.3594 41.0449C43.3594 39.9902 42.5391 39.1699 41.4844 39.1699ZM10.459 31.3477C10.459 32.9297 11.7188 34.1602 13.2422 34.1602C14.8242 34.1602 16.084 32.9297 16.084 31.3477C16.084 29.8242 14.8242 28.5645 13.2422 28.5645C11.7188 28.5645 10.459 29.8535 10.459 31.3477ZM22.3535 29.502C21.2695 29.502 20.4492 30.3223 20.4492 31.3477C20.4492 32.4609 21.2695 33.2812 22.3535 33.2812L56.8945 33.2812C57.9785 33.2812 58.7988 32.4609 58.7988 31.3477C58.7988 30.3223 57.9785 29.502 56.8945 29.502ZM10.459 22.1484C10.459 23.6719 11.748 24.9609 13.2422 24.9609C14.8242 24.9609 16.084 23.7012 16.084 22.1484C16.084 20.5664 14.8242 19.3359 13.2422 19.3359C11.748 19.3359 10.459 20.5957 10.459 22.1484ZM22.3535 20.2441C21.2988 20.2441 20.4492 21.123 20.4492 22.1484C20.4492 23.1738 21.2988 24.0234 22.3535 24.0234L41.4844 24.0234C42.5098 24.0234 43.3594 23.1738 43.3594 22.1484C43.3594 21.123 42.5098 20.2441 41.4844 20.2441ZM10.459 12.9199C10.459 14.4141 11.748 15.7324 13.2422 15.7324C14.8242 15.7324 16.084 14.4434 16.084 12.9199C16.084 11.3379 14.8242 10.1074 13.2422 10.1074C11.748 10.1074 10.459 11.3672 10.459 12.9199ZM22.3535 10.9863C21.2988 10.9863 20.4492 11.8359 20.4492 12.9199C20.4492 13.9453 21.2695 14.7656 22.3535 14.7656L56.8945 14.7656C57.9785 14.7656 58.7988 13.9453 58.7988 12.9199C58.7988 11.8359 57.9492 10.9863 56.8945 10.9863Z" fill="black" fill-opacity="0.85"/>
 </g>
</svg>
