<?xml version="1.0" encoding="UTF-8"?>
<!--Generator: Apple Native CoreSVG 341-->
<!DOCTYPE svg
PUBLIC "-//W3C//DTD SVG 1.1//EN"
       "http://www.w3.org/Graphics/SVG/1.1/DTD/svg11.dtd">
<svg version="1.1" xmlns="http://www.w3.org/2000/svg" xmlns:xlink="http://www.w3.org/1999/xlink" viewBox="0 0 51.416 54.2871">
 <g>
  <rect height="54.2871" opacity="0" width="51.416" x="0" y="0"/>
  <path d="M7.17773 54.2578L44.0039 54.2578C48.8672 54.2578 51.1816 52.793 51.1816 49.5703C51.1816 41.8945 41.4844 30.791 25.6055 30.791C9.69727 30.791 0 41.8945 0 49.5703C0 52.793 2.31445 54.2578 7.17773 54.2578ZM5.80078 49.834C5.03906 49.834 4.7168 49.6289 4.7168 49.0137C4.7168 44.1797 12.1582 35.2148 25.6055 35.2148C39.0234 35.2148 46.4648 44.1797 46.4648 49.0137C46.4648 49.6289 46.1719 49.834 45.4102 49.834ZM25.6055 27.1289C32.5781 27.1289 38.2617 20.9473 38.2617 13.3887C38.2617 5.88867 32.6074 0 25.6055 0C18.6621 0 12.9492 6.00586 12.9492 13.4473C12.9492 20.9766 18.6328 27.1289 25.6055 27.1289ZM25.6055 22.7051C21.3281 22.7051 17.666 18.6328 17.666 13.4473C17.666 8.34961 21.2695 4.42383 25.6055 4.42383C29.9707 4.42383 33.5449 8.26172 33.5449 13.3887C33.5449 18.5742 29.9121 22.7051 25.6055 22.7051Z" fill="black" fill-opacity="0.85"/>
 </g>
</svg>
