<?xml version="1.0" encoding="UTF-8"?>
<!--Generator: Apple Native CoreSVG 341-->
<!DOCTYPE svg
PUBLIC "-//W3C//DTD SVG 1.1//EN"
       "http://www.w3.org/Graphics/SVG/1.1/DTD/svg11.dtd">
<svg version="1.1" xmlns="http://www.w3.org/2000/svg" xmlns:xlink="http://www.w3.org/1999/xlink" viewBox="0 0 60 59.7949">
 <g>
  <rect height="59.7949" opacity="0" width="60" x="0" y="0"/>
  <path d="M29.8828 59.7656C46.377 59.7656 59.7656 46.377 59.7656 29.8828C59.7656 13.3887 46.377 0 29.8828 0C13.3887 0 0 13.3887 0 29.8828C0 46.377 13.3887 59.7656 29.8828 59.7656ZM29.8828 54.7852C16.1133 54.7852 4.98047 43.6523 4.98047 29.8828C4.98047 16.1133 16.1133 4.98047 29.8828 4.98047C43.6523 4.98047 54.7852 16.1133 54.7852 29.8828C54.7852 43.6523 43.6523 54.7852 29.8828 54.7852Z" fill="black" fill-opacity="0.85"/>
  <path d="M24.4043 41.3379L41.0742 31.4648C42.3047 30.7617 42.2754 29.0625 41.0742 28.3301L24.4043 18.457C23.1445 17.7246 21.4746 18.2812 21.4746 19.7168L21.4746 40.0781C21.4746 41.4844 23.0273 42.1582 24.4043 41.3379Z" fill="black" fill-opacity="0.85"/>
 </g>
</svg>
